<svg version="1.2" xmlns="http://www.w3.org/2000/svg" viewBox="0 0 292 283" width="292" height="283"><style>.a{opacity:1;fill:#f5f4f5}.b{fill:#343233}.c{fill:#484647}.d{opacity:.02;fill:#a6a4aa}.e{fill:#3a3a3a}.f{fill:#6a6a6a}.g{fill:#1b1b1b}.h{fill:#201e21}.i{opacity:.04;fill:#a3a1a6}.j{fill:#303030}.k{fill:#454545}.l{fill:#292929}.m{fill:#282828}.n{fill:#262626}.o{fill:#202020}.p{fill:#1f1f1f}.q{fill:#2a2a2a}.r{fill:#464646}.s{opacity:.01;fill:#181619}.t{fill:#1c1b1d}.u{fill:#222123}.v{opacity:.73;fill:#b6b6b8}.w{fill:#1d1c20}.x{fill:#1c1b1e}.y{fill:#939194}.z{fill:#252326}.A{fill:#18171b}.B{fill:#3e3c41}.C{opacity:.01;fill:#7f7d83}.D{opacity:.03;fill:#4a484e}.E{opacity:.64;fill:#b2b0b4}.F{fill:#6b6b6b}.G{fill:#252525}.H{fill:#1f1e20}.I{fill:#343434}.J{fill:#312f32}.K{fill:#2f2f2f}.L{fill:#252325}.M{fill:#212121}.N{fill:#343235}.O{fill:#1d1c1d}.P{fill:#272528}.Q{fill:#504e4f}.R{fill:#373637}.S{fill:#353336}.T{fill:#323133}.U{fill:#393738}.V{fill:#1d1c1e}.W{fill:#2e2c2d}.X{fill:#363436}.Y{opacity:.43;fill:#7b7b7c}.Z{fill:#222122}.a0{fill:#282628}.a1{fill:#2a282b}.a2{fill:#484849}.a3{fill:#242224}.a4{fill:#201e22}.a5{fill:#333}.a6{fill:#2b292c}.a7{fill:#2f2d30}.a8{fill:#29282a}.a9{fill:#272627}.aa{fill:#222023}.ab{opacity:.02;fill:#514f52}.ac{fill:#4c4a4d}.ad{fill:#3d3b3c}.ae{fill:#1a181b}.af{fill:#2c2a2d}.ag{fill:#211f20}.ah{opacity:.57;fill:#b3b1b4}.ai{fill:#29272b}.aj{fill:#171619}.ak{opacity:.12;fill:#69666c}.al{fill:#3c3c3e}.am{opacity:.75;fill:#aba8b0}.an{fill:#bcbabd}.ao{opacity:.99;fill:#eceaed}.ap{fill:#a9a7ac}.aq{fill:#373538}.ar{opacity:1;fill:#e4e1e5}.as{fill:#3c3a3e}.at{fill:#b8b6b7}.au{fill:#2c2a2b}.av{fill:#3f3d3e}.aw{opacity:.09;fill:#494847}.ax{opacity:.62;fill:#b8b6bc}.ay{fill:#d3d1d4}.az{fill:#212021}.aA{fill:#d4d2d6}.aB{opacity:.98;fill:#edebee}.aC{fill:#3b393c}.aD{fill:#39373c}.aE{fill:#7c7a7f}</style><path fill-rule="evenodd" class="a" d="m180.5 93.5q1.1 6.9 1 14-5.8 13.6-20 18.5 1.4 0.7 3 0.5-1.2 16.2 9.5 28-2.3-5.9-3.5-12.5 0.5-0.8 1-1.5 7.3 12.5 20 19.5 14.8 5.2 28-3.5 0.5 0.5 1 1-2.1 7.7-8 13 42.7 3.5 55.5 44 1 9 0 18-1.5 5.1-4.5 9-2 1-4 2 0-2-2-2-0.5 0-1 0-0.5-2-1-4 0.1-3.3-2-1-1.6 0.2-3-0.5 2-1.2 2-3.5 6.9-14.1-3.5-26-6.2-8.5-16.5-10.5-25.8 0.4-50-8-4.1-1.7-7.5-4.5 7.5 19.9 24 34 14.4 18.6 11 42-7.8 28-34.5 18.5-6.5-5.4-7.5-13.5 10.9 11.3 25.5 6.5 3.4-2.6 5-6.5 1.6-1.1 0.5-3-1.1 0.8-1.5 2-1.5 0-3 0 0-2 0-4 4.3-18.1-10-30-13.6-11.1-24-25-0.4-1.2-1.5-2-0.7 1.9-0.5 4-0.3 14.8-8.5 27-9.6 9.6-21.5 3.5 12.5-6.9 13.5-21.5 1-15-0.5-30 0.4-2.7-1-5-1.2 0.7-1 2-2.4 13.2-10.5 24-16 15.5-31 32-6.3 14 0.5 28-0.8 1.5-2 0.5-2.7-1.8-4.5-4.5-0.7 0.9-0.5 2 0 2 0 4-0.5 0-1 0 0.2-1.3-1-2-1.6 4.1-5 2-2.4-2.4-3.5-6-5.7-25.8 11-46 16.4-13.5 23-33-8.9 6-19.5 8.5-18.8 3.8-38 4-19.7 6.1-23 26.5 1.2 10.3 10 16-0.5 0.5-1 1-4-1.5-8-3 0-0.5 0-1-1.2-2.1-2 0.5 1.7 5.1-3.5 2.5-2.4 1.3-2.5 4-3.6-3.1-4-8-1.1-9-1-18 6.3-30.1 35-41.5 10.5-3.2 21-5-6-5.5-9-13 8.7 3.8 18.5 5.5 10.5-0.9 18.5-7.5 7.1-6.6 12.5-14.5-0.3 7.9-3 15 7.7-8 9.5-19 1.5-4.2 1-9 3.4 0.5 6-1.5-1.9-0.7-4-0.5-21.1-6.3-20.5-28 1.2-4.1 3.5-7.5-10.2-15.4-14.5-33.5-4.7-43.3 38.5-50.5 30.6-4.6 51.5 17.5 8.9 13.2 7 29-3.8 20.2-15.5 37 1 2 2 4z"/><path fill-rule="evenodd" class="b" d="m166.5 13.5q2.9 0.7 1 3-1.3-1.2-1-3z"/><path fill-rule="evenodd" class="c" d="m138.5 25.5q4.6 0 1.5 3-1.6-1.1-1.5-3z"/><path fill-rule="evenodd" class="d" d="m86.5 33.5q1.7 2.7 0.5 6-0.7-3-0.5-6z"/><path fill-rule="evenodd" class="e" d="m160.5 39.5q1.8-0.3 3 1-2.3 1.9-3-1z"/><path fill-rule="evenodd" class="f" d="m120.5 38.5q1.5 0 2 1.5-1 2.2-1 4.5-1.5 0-3 0 1-3 2-6z"/><path fill-rule="evenodd" class="g" d="m124.5 41.5q5 1.1 1 4-3.2-1.4-1-4z"/><path fill-rule="evenodd" class="h" d="m151.5 15.5q39.4 4.3 31.5 44-2.4 8.2-6 16 1.7-12.9 3.5-26 0.4-10-5.5-18-9.5-11.3-23.5-16z"/><path fill-rule="evenodd" class="i" d="m86.5 47.5q1.7 2.7 0.5 6-0.7-3-0.5-6z"/><path fill-rule="evenodd" class="j" d="m158.5 61.5q1.5 0 3 0 0 2.5 0 5-5.7 0-3-5z"/><path fill-rule="evenodd" class="k" d="m136.5 63.5q2.3 0.5 2 3-4.1 0.1-2-3z"/><path fill-rule="evenodd" class="l" d="m152.5 62.5q1.5 0 3 0 0 1.5 0 3-4.5 0.5-3-3z"/><path fill-rule="evenodd" class="m" d="m112.5 64.5q3.6 0.3 3 4-2 0-4 0-0.1-2.2 1-4z"/><path fill-rule="evenodd" class="n" d="m133.5 68.5q4-0.7 3.5 3-5.4 2.3-3.5-3z"/><path fill-rule="evenodd" class="o" d="m141.5 67.5q5.8 0.3 3 5.5-5.9 0.2-3-5.5z"/><path fill-rule="evenodd" class="p" d="m119.5 69.5q9.2 0.9 4 8.5-7.5 1-5.5-6.5 1.1-0.8 1.5-2z"/><path fill-rule="evenodd" class="q" d="m108.5 70.5q8.4 1.7 2 7-4.7-2.1-2-7z"/><path fill-rule="evenodd" class="r" d="m139.5 93.5q1.8-0.3 3 1-2.3 1.9-3-1z"/><path fill-rule="evenodd" class="s" d="m57.5 97.5q2.7 1 1 3-1.3-1.2-1-3z"/><path fill-rule="evenodd" class="t" d="m137.5 97.5q1.5 0 3 0 0 1.5 0 3-1.5 0-3 0 0-1.5 0-3z"/><path fill-rule="evenodd" class="u" d="m144.5 96.5q5.5-0.2 3 4.5-5.7 0.7-3-4.5z"/><path fill-rule="evenodd" class="v" d="m180.5 93.5q4.1 7 1 14 0.1-7.1-1-14z"/><path fill-rule="evenodd" class="w" d="m115.5 98.5q13 1 21 11.5-13.5 3.6-21.5-7.5-0.9-2.1 0.5-4z"/><path fill-rule="evenodd" class="x" d="m160.5 110.5q-3.4 0.4-6-1 8.1-10.1 21-11 1 5.7-4 8.5-5.1 3.1-11 3.5z"/><path fill-rule="evenodd" class="y" d="m154.5 109.5q2.6 1.4 6 1 0.2 3.8-2 7-1.1-2.9 0-6-2.7 0.4-5-1 0.2-0.9 1-1z"/><path fill-rule="evenodd" class="z" d="m161.5 114.5q1.5 0 3 0 0 1.5 0 3-1.5 0-3 0 0-1.5 0-3z"/><path fill-rule="evenodd" class="A" d="m127.5 118.5q2.8 0.2 1 2-1.2-0.7-1-2z"/><path fill-rule="evenodd" class="B" d="m132.5 117.5q3.6 0.3 3 4-5.2 0.3-3-4z"/><path fill-rule="evenodd" class="C" d="m114.5 131.5q-1-2 0 0z"/><path fill-rule="evenodd" class="D" d="m114.5 131.5q2 1 0 0z"/><path fill-rule="evenodd" class="E" d="m128.5 125.5q2.1-0.2 4 0.5-2.6 2-6 1.5 0.5 4.8-1 9 0-5 0-10 1.9 0.4 3-1z"/><path fill-rule="evenodd" class="F" d="m150.5 136.5q2.3 0.5 2 3-4.1 0.1-2-3z"/><path fill-rule="evenodd" class="G" d="m153.5 140.5q3.2-0.6 5 2-1.8 2.6-5 2 0-2 0-4z"/><path fill-rule="evenodd" class="H" d="m132.5 140.5q2.8 0.2 1 2-1.2-0.7-1-2z"/><path fill-rule="evenodd" class="I" d="m147.5 140.5q1.5 0 3 0 0 2 0 4-1.5 0-3 0 0-2 0-4z"/><path fill-rule="evenodd" class="l" d="m136.5 143.5q5.5-0.2 3 4.5-5.7 0.7-3-4.5z"/><path fill-rule="evenodd" class="J" d="m130.5 143.5q2.2-0.1 3 2-1.2 2.4-4 2-0.1-2.2 1-4z"/><path fill-rule="evenodd" class="K" d="m149.5 163.5q1.5 0 3 0 0 1.5 0 3-1.5 0-3 0 0-1.5 0-3z"/><path fill-rule="evenodd" class="L" d="m102.5 165.5q1.5 0 3 0 0 1.5 0 3-1.5 0-3 0 0-1.5 0-3z"/><path fill-rule="evenodd" class="M" d="m155.5 167.5q6 0.2 4 5.5-8.9 1.8-4-5.5z"/><path fill-rule="evenodd" class="G" d="m146.5 168.5q2 0 4 0 0.6 3.2-2 5-2.6-1.8-2-5z"/><path fill-rule="evenodd" class="N" d="m187.5 170.5q2.9 0.7 1 3-1.3-1.2-1-3z"/><path fill-rule="evenodd" class="O" d="m99.5 170.5q5.1-0.2 4 5-6.7 0.9-4-5z"/><path fill-rule="evenodd" class="P" d="m108.5 169.5q7.1-0.4 5 6-8.6 2.6-5-6z"/><path fill-rule="evenodd" class="Q" d="m83.5 174.5q4.8 0.7 1 3-1.3-1.2-1-3z"/><path fill-rule="evenodd" class="R" d="m185.5 174.5q3.6 0.3 3 4-2 0-4 0-0.1-2.2 1-4z"/><path fill-rule="evenodd" class="S" d="m126.5 176.5q2.9 0.7 1 3-1.3-1.2-1-3z"/><path fill-rule="evenodd" class="T" d="m191.5 174.5q5.5-1.1 4.5 4-5.5 2.3-4.5-4z"/><path fill-rule="evenodd" class="U" d="m81.5 178.5q1.5 0 3 0-0.1 6.1-4 2 0.5-1 1-2z"/><path fill-rule="evenodd" class="V" d="m208.5 178.5q1.5 0 3 0 0 1.5 0 3-1.5 0-3 0 0-1.5 0-3z"/><path fill-rule="evenodd" class="W" d="m88.5 177.5q8.3 4-1 5-0.2-2.7 1-5z"/><path fill-rule="evenodd" class="X" d="m123.5 180.5q5.5-0.2 3 4.5-5.7 0.7-3-4.5z"/><path fill-rule="evenodd" class="Y" d="m141.5 185.5q-1-1.5-2-3-0.2-1.3 1-2 1.4 2.3 1 5z"/><path fill-rule="evenodd" class="Z" d="m61.5 180.5q2.9 0.7 1 3-1.3-1.2-1-3z"/><path fill-rule="evenodd" class="a0" d="m66.5 180.5q1.5 0 3 0 0.4 2.8-2 4-1.4-1.8-1-4z"/><path fill-rule="evenodd" class="a1" d="m130.5 180.5q2.5-0.2 5 0.5 2 5.5-4 5-1.4-2.5-1-5.5z"/><path fill-rule="evenodd" class="J" d="m232.5 183.5q1.8-0.3 3 1-2.3 1.9-3-1z"/><path fill-rule="evenodd" class="a2" d="m70.5 184.5q2.8 0.2 1 2-1.2-0.7-1-2z"/><path fill-rule="evenodd" class="a3" d="m205.5 183.5q5.8 0.3 3 5.5-5.9 0.2-3-5.5z"/><path fill-rule="evenodd" class="a4" d="m215.5 182.5q4.3-0.2 5 4-3.5 8-7 0 0.4-2.4 2-4z"/><path fill-rule="evenodd" class="a5" d="m153.5 186.5q2.9 0.7 1 3-1.3-1.2-1-3z"/><path fill-rule="evenodd" class="a6" d="m68.5 187.5q1.5 0 3 0 0 1.5 0 3-1.5 0-3 0 0-1.5 0-3z"/><path fill-rule="evenodd" class="P" d="m230.5 187.5q1.5 0 3 0 0.4 2.8-2 4-1.4-1.8-1-4z"/><path fill-rule="evenodd" class="H" d="m237.5 186.5q5.5-0.2 3 4.5-5.7 0.7-3-4.5z"/><path fill-rule="evenodd" class="N" d="m74.5 186.5q4.8 0.3 3 4.5-5.7 0.7-3-4.5z"/><path fill-rule="evenodd" class="a7" d="m114.5 191.5q1.8-0.3 3 1-2.3 1.9-3-1z"/><path fill-rule="evenodd" class="a8" d="m151.5 190.5q2.2-0.1 3 2-1.2 2.4-4 2-0.1-2.2 1-4z"/><path fill-rule="evenodd" class="a7" d="m158.5 189.5q7.1 2.1 1 6-5.5-2-1-6z"/><path fill-rule="evenodd" class="a9" d="m120.5 194.5q5.8 0.3 3 5.5-4.1 1.6-5-2.5 0.7-1.9 2-3z"/><path fill-rule="evenodd" class="aa" d="m111.5 195.5q2 0 4 0 0 2 0 4-2 0-4 0 0-2 0-4z"/><path fill-rule="evenodd" class="ab" d="m160.5 204.5q-1 1-2 2-0.2-2.1 0.5-4 1.1 0.8 1.5 2z"/><path fill-rule="evenodd" class="c" d="m31.5 207.5q5.7 1.9 0 3 0-1.5 0-3z"/><path fill-rule="evenodd" class="ac" d="m27.5 208.5q2.8 0.2 1 2-1.2-0.7-1-2z"/><path fill-rule="evenodd" class="ad" d="m256.5 209.5q2.8 0.2 1 2-1.2-0.7-1-2z"/><path fill-rule="evenodd" class="ae" d="m260.5 209.5q2.8 0.2 1 2-1.2-0.7-1-2z"/><path fill-rule="evenodd" class="e" d="m179.5 210.5q2.9 0.7 1 3-1.3-1.2-1-3z"/><path fill-rule="evenodd" class="af" d="m183.5 210.5q1.5 0 3 0 0 1.5 0 3-1.5 0-3 0 0-1.5 0-3z"/><path fill-rule="evenodd" class="ag" d="m106.5 211.5q2.8 0.2 1 2-1.2-0.7-1-2z"/><path fill-rule="evenodd" class="U" d="m111.5 210.5q1.5 0 3 0-0.1 6.1-4 2 0.5-1 1-2z"/><path fill-rule="evenodd" class="ah" d="m22.5 216.5q-0.1 9 1 18-2.2-5.1-2-11 0-3.8 1-7z"/><path fill-rule="evenodd" class="ai" d="m90.5 226.5q4.8 0.7 1 3-1.3-1.2-1-3z"/><path fill-rule="evenodd" class="aj" d="m95.5 226.5q1.5 0 3 0 0 1.5 0 3-1.5 0-3 0 0-1.5 0-3z"/><path fill-rule="evenodd" class="ak" d="m57.5 226.5q-1 3-2 6-0.5-4.1 1-8 1.2 0.7 1 2z"/><path fill-rule="evenodd" class="al" d="m200.5 233.5q2.8 0.2 1 2-1.2-0.7-1-2z"/><path fill-rule="evenodd" class="am" d="m252.5 232.5q0 2.3-2 3.5 1.4 0.7 3 0.5-3.2 1.8-7 3 1.4-4 6-7z"/><path fill-rule="evenodd" class="an" d="m35.5 235.5q-2 0.5 0 1 0.9 2.9 3 5-2-0.5-4-1-2.5-0.3-3 2-2.3-0.1-3 2-1.3-0.5-1-2 0.1-2.7 2.5-4 5.2 2.6 3.5-2.5 0.8-2.6 2-0.5z"/><path fill-rule="evenodd" class="ao" d="m57.5 226.5q9 16.9-8 25.5-13 3-21-7.5 0.7-2.1 3-2 2.5 0.3 3-2 2 0.5 4 1 14.4 7.1 17-9 1-3 2-6z"/><path fill-rule="evenodd" class="ap" d="m255.5 237.5q0.5 2 1 4-1 1.3-2 3-1-2.2-3-3 2-2 4-4z"/><path fill-rule="evenodd" class="aq" d="m34.5 240.5q-0.5 2.3-3 2 0.5-2.3 3-2z"/><path fill-rule="evenodd" class="ar" d="m251.5 241.5q2 0.8 3 3 1-1.7 2-3 0.5 0 1 0-0.3 1.8 1 3 0.9-0.2 1-1 2-1 4-2-9.5 16.4-27 8.5-12.5-11.5-2.5-25.5-0.6 9.6 4.5 17.5 6.8 4.6 13-0.5z"/><path fill-rule="evenodd" class="as" d="m257.5 241.5q2 0 2 2-0.1 0.8-1 1-1.3-1.2-1-3z"/><path fill-rule="evenodd" class="at" d="m87.5 250.5q-1-4-2 0-1.5 0-3 0-0.3-2 1-3.5 2.4 0 5 0.5 0.4 1.9-1 3z"/><path fill-rule="evenodd" class="au" d="m87.5 250.5q-1 0-2 0 1-4 2 0z"/><path fill-rule="evenodd" class="av" d="m200.5 251.5q1.3-0.2 2 1-3.5 2.1-2-1z"/><path fill-rule="evenodd" class="N" d="m204.5 251.5q5.2 0.3 1 3-1.3-1.2-1-3z"/><path fill-rule="evenodd" class="aw" d="m198.5 264.5q0-1-1-1 0.4-1.2 1.5-2 1.1 1.9-0.5 3z"/><path fill-rule="evenodd" class="ax" d="m194.5 259.5q0 2 0 4 1.5 0 3 0-2.1 4-6 3 1.7-3.6 3-7z"/><path fill-rule="evenodd" class="ay" d="m91.5 264.5q2.4 4.9 7 8-0.8 0.1-1 1 1.1 1 2 2-2 0-2 2-3.7-0.6-2 2-8-3-11-11 3.4 2.1 5-2 1.2 0.7 1 2-0.2 1.3 1 2 1.9-1.1 0-2 0-2 0-4z"/><path fill-rule="evenodd" class="az" d="m90.5 268.5q0.5 0 1 0 1.9 0.9 0 2-1.2-0.7-1-2z"/><path fill-rule="evenodd" class="aA" d="m112.5 279.5q0.4-2.9-2-4.5 0.5-0.5 1-1-1.9-0.7-4-0.5 7.9-3.1 14.5-9-0.9 9.8-9.5 15z"/><path fill-rule="evenodd" class="aB" d="m98.5 272.5q4.4 1 9 1 2.1-0.2 4 0.5-0.5 0.5-1 1 2.4 1.6 2 4.5-8.5 3.9-17 0-1.7-2.6 2-2 2 0 2-2-0.9-1-2-2 0.2-0.9 1-1z"/><path fill-rule="evenodd" class="aC" d="m195.5 273.5q3.4 1.1 0.5 3-2.6-1.3-0.5-3z"/><path fill-rule="evenodd" class="aD" d="m99.5 275.5q0 2-2 2 0-2 2-2z"/><path fill-rule="evenodd" class="aE" d="m103.5 274.5q1.7 0.6 3 2-1.8 0.7-3.5 1-0.7-1.6 0.5-3z"/></svg>