<?xml version="1.0" encoding="UTF-8"?>
<!DOCTYPE svg PUBLIC "-//W3C//DTD SVG 1.1//EN" "http://www.w3.org/Graphics/SVG/1.1/DTD/svg11.dtd">
<svg xmlns="http://www.w3.org/2000/svg" version="1.1" width="403px" height="401px" style="shape-rendering:geometricPrecision; text-rendering:geometricPrecision; image-rendering:optimizeQuality; fill-rule:evenodd; clip-rule:evenodd" xmlns:xlink="http://www.w3.org/1999/xlink">
<g><path style="opacity:0.998" fill="#f5f4f5" d="M 235.5,161.5 C 236.229,166.13 236.563,170.797 236.5,175.5C 232.622,184.54 225.956,190.706 216.5,194C 217.448,194.483 218.448,194.649 219.5,194.5C 218.687,205.273 221.853,214.607 229,222.5C 227.475,218.564 226.308,214.397 225.5,210C 225.833,209.5 226.167,209 226.5,208.5C 231.358,216.859 238.025,223.359 246.5,228C 256.385,231.458 265.718,230.292 274.5,224.5C 274.833,224.833 275.167,225.167 275.5,225.5C 274.1,230.637 271.433,234.971 267.5,238.5C 295.983,240.838 314.483,255.504 323,282.5C 323.667,288.5 323.667,294.5 323,300.5C 321.981,303.872 320.481,306.872 318.5,309.5C 317.167,310.167 315.833,310.833 314.5,311.5C 314.5,310.167 313.833,309.5 312.5,309.5C 312.167,309.5 311.833,309.5 311.5,309.5C 311.167,308.167 310.833,306.833 310.5,305.5C 310.591,303.302 309.925,302.969 308.5,304.5C 307.448,304.649 306.448,304.483 305.5,304C 306.823,303.184 307.489,302.017 307.5,300.5C 312.078,291.132 310.912,282.465 304,274.5C 299.873,268.852 294.373,265.352 287.5,264C 270.333,264.242 253.666,261.576 237.5,256C 234.751,254.877 232.251,253.377 230,251.5C 234.984,264.742 242.984,276.075 254,285.5C 263.602,297.907 267.269,311.907 265,327.5C 259.786,346.141 248.286,352.308 230.5,346C 226.174,342.382 223.674,337.882 223,332.5C 230.298,340.055 238.798,342.221 248.5,339C 250.765,337.242 252.432,335.075 253.5,332.5C 254.573,331.749 254.74,330.749 254,329.5C 253.283,330.044 252.783,330.711 252.5,331.5C 251.5,331.5 250.5,331.5 249.5,331.5C 249.5,330.167 249.5,328.833 249.5,327.5C 252.356,315.402 249.023,305.402 239.5,297.5C 230.413,290.082 222.413,281.749 215.5,272.5C 215.217,271.711 214.717,271.044 214,270.5C 213.51,271.793 213.343,273.127 213.5,274.5C 213.289,284.351 210.455,293.351 205,301.5C 198.603,307.886 191.436,309.053 183.5,305C 191.842,300.385 196.342,293.218 197,283.5C 197.699,273.478 197.532,263.478 196.5,253.5C 196.785,251.712 196.452,250.045 195.5,248.5C 194.702,248.957 194.369,249.624 194.5,250.5C 192.928,259.314 189.428,267.314 184,274.5C 173.358,284.809 163.025,295.476 153,306.5C 148.808,315.814 148.975,325.148 153.5,334.5C 152.998,335.521 152.332,335.688 151.5,335C 149.667,333.833 148.167,332.333 147,330.5C 146.536,331.094 146.369,331.761 146.5,332.5C 146.5,333.833 146.5,335.167 146.5,336.5C 146.167,336.5 145.833,336.5 145.5,336.5C 145.631,335.624 145.298,334.957 144.5,334.5C 143.465,337.266 141.799,337.932 139.5,336.5C 137.883,334.879 136.716,332.879 136,330.5C 132.192,313.33 135.859,297.997 147,284.5C 157.961,275.506 165.627,264.506 170,251.5C 164.036,255.491 157.536,258.324 150.5,260C 137.96,262.504 125.294,263.838 112.5,264C 99.3804,268.057 91.7137,276.891 89.5,290.5C 90.2746,297.373 93.6079,302.706 99.5,306.5C 99.1667,306.833 98.8333,307.167 98.5,307.5C 95.8122,306.487 93.1456,305.487 90.5,304.5C 90.5,304.167 90.5,303.833 90.5,303.5C 89.6977,302.115 89.0311,302.282 88.5,304C 89.6623,307.401 88.4957,308.234 85,306.5C 83.4053,307.356 82.572,308.689 82.5,310.5C 80.127,308.421 78.7936,305.754 78.5,302.5C 77.7588,296.529 77.4255,290.529 77.5,284.5C 81.7097,264.451 93.3764,250.618 112.5,243C 119.473,240.839 126.473,239.172 133.5,238C 129.513,234.364 126.513,230.03 124.5,225C 130.326,227.504 136.493,229.338 143,230.5C 150.016,229.882 156.183,227.382 161.5,223C 166.258,218.633 170.425,213.8 174,208.5C 173.794,213.75 172.794,218.75 171,223.5C 176.166,218.169 179.333,211.835 180.5,204.5C 181.477,201.713 181.81,198.713 181.5,195.5C 183.75,195.819 185.75,195.319 187.5,194C 186.207,193.51 184.873,193.343 183.5,193.5C 169.419,189.279 162.585,179.945 163,165.5C 163.773,162.789 164.94,160.289 166.5,158C 159.732,147.703 154.898,136.537 152,124.5C 148.859,95.6266 161.692,78.7933 190.5,74C 210.872,70.9008 228.039,76.7341 242,91.5C 247.943,100.274 250.277,109.941 249,120.5C 246.46,133.96 241.293,146.293 233.5,157.5C 234.18,158.86 234.847,160.193 235.5,161.5 Z"/></g>
<g><path style="opacity:1" fill="#343233" d="M 221.5,81.5 C 223.465,81.9483 223.798,82.9483 222.5,84.5C 221.614,83.675 221.281,82.675 221.5,81.5 Z"/></g>
<g><path style="opacity:1" fill="#484647" d="M 193.5,93.5 C 196.548,93.494 197.048,94.494 195,96.5C 193.961,95.7562 193.461,94.7562 193.5,93.5 Z"/></g>
<g><path style="opacity:0.024" fill="#a6a4aa" d="M 141.5,101.5 C 142.622,103.288 142.789,105.288 142,107.5C 141.505,105.527 141.338,103.527 141.5,101.5 Z"/></g>
<g><path style="opacity:1" fill="#3a3a3a" d="M 215.5,107.5 C 216.675,107.281 217.675,107.614 218.5,108.5C 216.948,109.798 215.948,109.465 215.5,107.5 Z"/></g>
<g><path style="opacity:1" fill="#6a6a6a" d="M 175.5,106.5 C 176.497,106.47 177.164,106.97 177.5,108C 176.852,109.44 176.519,110.94 176.5,112.5C 175.5,112.5 174.5,112.5 173.5,112.5C 174.167,110.5 174.833,108.5 175.5,106.5 Z"/></g>
<g><path style="opacity:1" fill="#1b1b1b" d="M 179.5,109.5 C 182.861,110.203 183.194,111.537 180.5,113.5C 178.358,112.563 178.024,111.23 179.5,109.5 Z"/></g>
<g><path style="opacity:1" fill="#201e21" d="M 206.5,83.5 C 232.798,86.3559 243.298,101.023 238,127.5C 236.396,132.977 234.396,138.311 232,143.5C 233.111,134.887 234.278,126.22 235.5,117.5C 235.736,110.828 233.903,104.828 230,99.5C 223.637,91.9646 215.804,86.6313 206.5,83.5 Z"/></g>
<g><path style="opacity:0.035" fill="#a3a1a6" d="M 141.5,115.5 C 142.622,117.288 142.789,119.288 142,121.5C 141.505,119.527 141.338,117.527 141.5,115.5 Z"/></g>
<g><path style="opacity:1" fill="#303030" d="M 213.5,129.5 C 214.5,129.5 215.5,129.5 216.5,129.5C 216.5,131.167 216.5,132.833 216.5,134.5C 212.716,134.475 211.716,132.808 213.5,129.5 Z"/></g>
<g><path style="opacity:1" fill="#454545" d="M 191.5,131.5 C 193.048,131.821 193.715,132.821 193.5,134.5C 190.752,134.598 190.086,133.598 191.5,131.5 Z"/></g>
<g><path style="opacity:1" fill="#292929" d="M 207.5,130.5 C 208.5,130.5 209.5,130.5 210.5,130.5C 210.5,131.5 210.5,132.5 210.5,133.5C 207.506,133.854 206.506,132.854 207.5,130.5 Z"/></g>
<g><path style="opacity:1" fill="#282828" d="M 167.5,132.5 C 169.912,132.694 170.912,134.027 170.5,136.5C 169.167,136.5 167.833,136.5 166.5,136.5C 166.433,135.041 166.766,133.708 167.5,132.5 Z"/></g>
<g><path style="opacity:1" fill="#262626" d="M 188.5,136.5 C 191.166,136.066 192.333,137.066 192,139.5C 188.403,141.066 187.237,140.066 188.5,136.5 Z"/></g>
<g><path style="opacity:1" fill="#202020" d="M 196.5,135.5 C 200.35,135.701 201.35,137.534 199.5,141C 195.537,141.118 194.537,139.284 196.5,135.5 Z"/></g>
<g><path style="opacity:1" fill="#1f1f1f" d="M 174.5,137.5 C 180.651,138.103 181.984,140.936 178.5,146C 173.504,146.664 171.67,144.498 173,139.5C 173.717,138.956 174.217,138.289 174.5,137.5 Z"/></g>
<g><path style="opacity:1" fill="#2a2a2a" d="M 163.5,138.5 C 169.096,139.61 169.762,141.944 165.5,145.5C 162.337,144.075 161.67,141.742 163.5,138.5 Z"/></g>
<g><path style="opacity:1" fill="#464646" d="M 194.5,161.5 C 195.675,161.281 196.675,161.614 197.5,162.5C 195.948,163.798 194.948,163.465 194.5,161.5 Z"/></g>
<g><path style="opacity:0.012" fill="#181619" d="M 112.5,165.5 C 114.332,166.14 114.665,167.14 113.5,168.5C 112.614,167.675 112.281,166.675 112.5,165.5 Z"/></g>
<g><path style="opacity:1" fill="#1c1b1d" d="M 192.5,165.5 C 193.5,165.5 194.5,165.5 195.5,165.5C 195.5,166.5 195.5,167.5 195.5,168.5C 194.5,168.5 193.5,168.5 192.5,168.5C 192.5,167.5 192.5,166.5 192.5,165.5 Z"/></g>
<g><path style="opacity:1" fill="#222123" d="M 199.5,164.5 C 203.161,164.35 204.161,165.85 202.5,169C 198.707,169.487 197.707,167.987 199.5,164.5 Z"/></g>
<g><path style="opacity:0.725" fill="#b6b6b8" d="M 235.5,161.5 C 238.243,166.134 238.576,170.801 236.5,175.5C 236.563,170.797 236.229,166.13 235.5,161.5 Z"/></g>
<g><path style="opacity:1" fill="#1d1c20" d="M 170.5,166.5 C 179.174,167.172 186.174,171.005 191.5,178C 182.497,180.401 175.33,177.901 170,170.5C 169.421,169.072 169.588,167.738 170.5,166.5 Z"/></g>
<g><path style="opacity:1" fill="#1c1b1e" d="M 215.5,178.5 C 213.265,178.795 211.265,178.461 209.5,177.5C 214.904,170.758 221.904,167.091 230.5,166.5C 231.178,170.273 229.844,173.106 226.5,175C 223.107,177.076 219.44,178.242 215.5,178.5 Z"/></g>
<g><path style="opacity:1" fill="#939194" d="M 209.5,177.5 C 211.265,178.461 213.265,178.795 215.5,178.5C 215.61,181.059 214.944,183.392 213.5,185.5C 212.769,183.599 212.769,181.599 213.5,179.5C 211.712,179.785 210.045,179.452 208.5,178.5C 208.624,177.893 208.957,177.56 209.5,177.5 Z"/></g>
<g><path style="opacity:1" fill="#252326" d="M 216.5,182.5 C 217.5,182.5 218.5,182.5 219.5,182.5C 219.5,183.5 219.5,184.5 219.5,185.5C 218.5,185.5 217.5,185.5 216.5,185.5C 216.5,184.5 216.5,183.5 216.5,182.5 Z"/></g>
<g><path style="opacity:1" fill="#18171b" d="M 182.5,186.5 C 184.337,186.639 184.67,187.306 183.5,188.5C 182.702,188.043 182.369,187.376 182.5,186.5 Z"/></g>
<g><path style="opacity:1" fill="#3e3c41" d="M 187.5,185.5 C 189.912,185.694 190.912,187.027 190.5,189.5C 187.046,189.733 186.046,188.4 187.5,185.5 Z"/></g>
<g><path style="opacity:0.008" fill="#7f7d83" d="M 169.5,199.5 C 168.833,198.167 168.833,198.167 169.5,199.5 Z"/></g>
<g><path style="opacity:0.027" fill="#4a484e" d="M 169.5,199.5 C 170.833,200.167 170.833,200.167 169.5,199.5 Z"/></g>
<g><path style="opacity:0.639" fill="#b2b0b4" d="M 183.5,193.5 C 184.873,193.343 186.207,193.51 187.5,194C 185.75,195.319 183.75,195.819 181.5,195.5C 181.81,198.713 181.477,201.713 180.5,204.5C 180.5,201.167 180.5,197.833 180.5,194.5C 181.791,194.737 182.791,194.404 183.5,193.5 Z"/></g>
<g><path style="opacity:1" fill="#6b6b6b" d="M 205.5,204.5 C 207.048,204.821 207.715,205.821 207.5,207.5C 204.752,207.598 204.086,206.598 205.5,204.5 Z"/></g>
<g><path style="opacity:1" fill="#252525" d="M 208.5,208.5 C 210.665,208.116 212.332,208.783 213.5,210.5C 212.332,212.217 210.665,212.884 208.5,212.5C 208.5,211.167 208.5,209.833 208.5,208.5 Z"/></g>
<g><path style="opacity:1" fill="#1f1e20" d="M 187.5,208.5 C 189.337,208.639 189.67,209.306 188.5,210.5C 187.702,210.043 187.369,209.376 187.5,208.5 Z"/></g>
<g><path style="opacity:1" fill="#343434" d="M 202.5,208.5 C 203.5,208.5 204.5,208.5 205.5,208.5C 205.5,209.833 205.5,211.167 205.5,212.5C 204.5,212.5 203.5,212.5 202.5,212.5C 202.5,211.167 202.5,209.833 202.5,208.5 Z"/></g>
<g><path style="opacity:1" fill="#292929" d="M 191.5,211.5 C 195.161,211.35 196.161,212.85 194.5,216C 190.707,216.487 189.707,214.987 191.5,211.5 Z"/></g>
<g><path style="opacity:1" fill="#312f32" d="M 185.5,211.5 C 186.995,211.415 187.995,212.081 188.5,213.5C 187.68,215.111 186.346,215.778 184.5,215.5C 184.433,214.041 184.766,212.708 185.5,211.5 Z"/></g>
<g><path style="opacity:1" fill="#2f2f2f" d="M 204.5,231.5 C 205.5,231.5 206.5,231.5 207.5,231.5C 207.5,232.5 207.5,233.5 207.5,234.5C 206.5,234.5 205.5,234.5 204.5,234.5C 204.5,233.5 204.5,232.5 204.5,231.5 Z"/></g>
<g><path style="opacity:1" fill="#252325" d="M 157.5,233.5 C 158.5,233.5 159.5,233.5 160.5,233.5C 160.5,234.5 160.5,235.5 160.5,236.5C 159.5,236.5 158.5,236.5 157.5,236.5C 157.5,235.5 157.5,234.5 157.5,233.5 Z"/></g>
<g><path style="opacity:1" fill="#212121" d="M 210.5,235.5 C 214.485,235.629 215.818,237.463 214.5,241C 208.546,242.227 207.212,240.394 210.5,235.5 Z"/></g>
<g><path style="opacity:1" fill="#252525" d="M 201.5,236.5 C 202.833,236.5 204.167,236.5 205.5,236.5C 205.884,238.665 205.217,240.332 203.5,241.5C 201.783,240.332 201.116,238.665 201.5,236.5 Z"/></g>
<g><path style="opacity:1" fill="#343235" d="M 242.5,238.5 C 244.465,238.948 244.798,239.948 243.5,241.5C 242.614,240.675 242.281,239.675 242.5,238.5 Z"/></g>
<g><path style="opacity:1" fill="#1d1c1d" d="M 154.5,238.5 C 157.91,238.384 159.244,240.05 158.5,243.5C 154.065,244.078 152.732,242.411 154.5,238.5 Z"/></g>
<g><path style="opacity:1" fill="#272528" d="M 163.5,237.5 C 168.22,237.206 169.886,239.206 168.5,243.5C 162.74,245.212 161.074,243.212 163.5,237.5 Z"/></g>
<g><path style="opacity:1" fill="#504e4f" d="M 138.5,242.5 C 141.674,242.952 142.007,243.952 139.5,245.5C 138.614,244.675 138.281,243.675 138.5,242.5 Z"/></g>
<g><path style="opacity:1" fill="#373637" d="M 240.5,242.5 C 242.912,242.694 243.912,244.027 243.5,246.5C 242.167,246.5 240.833,246.5 239.5,246.5C 239.433,245.041 239.766,243.708 240.5,242.5 Z"/></g>
<g><path style="opacity:1" fill="#353336" d="M 181.5,244.5 C 183.465,244.948 183.798,245.948 182.5,247.5C 181.614,246.675 181.281,245.675 181.5,244.5 Z"/></g>
<g><path style="opacity:1" fill="#323133" d="M 246.5,242.5 C 250.138,241.737 251.638,243.07 251,246.5C 247.331,248.009 245.831,246.676 246.5,242.5 Z"/></g>
<g><path style="opacity:1" fill="#393738" d="M 136.5,246.5 C 137.5,246.5 138.5,246.5 139.5,246.5C 139.426,250.541 138.093,251.208 135.5,248.5C 135.863,247.817 136.196,247.15 136.5,246.5 Z"/></g>
<g><path style="opacity:1" fill="#1d1c1e" d="M 263.5,246.5 C 264.5,246.5 265.5,246.5 266.5,246.5C 266.5,247.5 266.5,248.5 266.5,249.5C 265.5,249.5 264.5,249.5 263.5,249.5C 263.5,248.5 263.5,247.5 263.5,246.5 Z"/></g>
<g><path style="opacity:1" fill="#2e2c2d" d="M 143.5,245.5 C 149.005,248.171 148.671,249.838 142.5,250.5C 142.366,248.708 142.699,247.042 143.5,245.5 Z"/></g>
<g><path style="opacity:1" fill="#363436" d="M 178.5,248.5 C 182.161,248.35 183.161,249.85 181.5,253C 177.707,253.487 176.707,251.987 178.5,248.5 Z"/></g>
<g><path style="opacity:0.431" fill="#7b7b7c" d="M 196.5,253.5 C 195.833,252.5 195.167,251.5 194.5,250.5C 194.369,249.624 194.702,248.957 195.5,248.5C 196.452,250.045 196.785,251.712 196.5,253.5 Z"/></g>
<g><path style="opacity:1" fill="#222122" d="M 116.5,248.5 C 118.465,248.948 118.798,249.948 117.5,251.5C 116.614,250.675 116.281,249.675 116.5,248.5 Z"/></g>
<g><path style="opacity:1" fill="#282628" d="M 121.5,248.5 C 122.5,248.5 123.5,248.5 124.5,248.5C 124.778,250.346 124.111,251.68 122.5,252.5C 121.571,251.311 121.238,249.978 121.5,248.5 Z"/></g>
<g><path style="opacity:1" fill="#2a282b" d="M 185.5,248.5 C 187.199,248.34 188.866,248.506 190.5,249C 191.813,252.692 190.48,254.359 186.5,254C 185.594,252.301 185.261,250.467 185.5,248.5 Z"/></g>
<g><path style="opacity:1" fill="#312f32" d="M 287.5,251.5 C 288.675,251.281 289.675,251.614 290.5,252.5C 288.948,253.798 287.948,253.465 287.5,251.5 Z"/></g>
<g><path style="opacity:1" fill="#484849" d="M 125.5,252.5 C 127.337,252.639 127.67,253.306 126.5,254.5C 125.702,254.043 125.369,253.376 125.5,252.5 Z"/></g>
<g><path style="opacity:1" fill="#242224" d="M 260.5,251.5 C 264.35,251.701 265.35,253.534 263.5,257C 259.537,257.118 258.537,255.284 260.5,251.5 Z"/></g>
<g><path style="opacity:1" fill="#201e22" d="M 270.5,250.5 C 273.352,250.352 275.019,251.686 275.5,254.5C 273.167,259.833 270.833,259.833 268.5,254.5C 268.752,252.927 269.418,251.594 270.5,250.5 Z"/></g>
<g><path style="opacity:1" fill="#333333" d="M 208.5,254.5 C 210.465,254.948 210.798,255.948 209.5,257.5C 208.614,256.675 208.281,255.675 208.5,254.5 Z"/></g>
<g><path style="opacity:1" fill="#2b292c" d="M 123.5,255.5 C 124.5,255.5 125.5,255.5 126.5,255.5C 126.5,256.5 126.5,257.5 126.5,258.5C 125.5,258.5 124.5,258.5 123.5,258.5C 123.5,257.5 123.5,256.5 123.5,255.5 Z"/></g>
<g><path style="opacity:1" fill="#272528" d="M 285.5,255.5 C 286.5,255.5 287.5,255.5 288.5,255.5C 288.778,257.346 288.111,258.68 286.5,259.5C 285.571,258.311 285.238,256.978 285.5,255.5 Z"/></g>
<g><path style="opacity:1" fill="#1f1e20" d="M 292.5,254.5 C 296.161,254.35 297.161,255.85 295.5,259C 291.707,259.487 290.707,257.987 292.5,254.5 Z"/></g>
<g><path style="opacity:1" fill="#343235" d="M 129.5,254.5 C 132.685,254.722 133.685,256.222 132.5,259C 128.707,259.487 127.707,257.987 129.5,254.5 Z"/></g>
<g><path style="opacity:1" fill="#2f2d30" d="M 169.5,259.5 C 170.675,259.281 171.675,259.614 172.5,260.5C 170.948,261.798 169.948,261.465 169.5,259.5 Z"/></g>
<g><path style="opacity:1" fill="#29282a" d="M 206.5,258.5 C 207.995,258.415 208.995,259.081 209.5,260.5C 208.68,262.111 207.346,262.778 205.5,262.5C 205.433,261.041 205.766,259.708 206.5,258.5 Z"/></g>
<g><path style="opacity:1" fill="#2f2d30" d="M 213.5,257.5 C 218.229,258.926 218.562,260.926 214.5,263.5C 210.854,262.2 210.52,260.2 213.5,257.5 Z"/></g>
<g><path style="opacity:1" fill="#272627" d="M 175.5,262.5 C 179.35,262.701 180.35,264.534 178.5,268C 175.763,269.08 174.096,268.246 173.5,265.5C 173.942,264.261 174.609,263.261 175.5,262.5 Z"/></g>
<g><path style="opacity:1" fill="#222023" d="M 166.5,263.5 C 167.833,263.5 169.167,263.5 170.5,263.5C 170.5,264.833 170.5,266.167 170.5,267.5C 169.167,267.5 167.833,267.5 166.5,267.5C 166.5,266.167 166.5,264.833 166.5,263.5 Z"/></g>
<g><path style="opacity:0.016" fill="#514f52" d="M 215.5,272.5 C 214.833,273.167 214.167,273.833 213.5,274.5C 213.343,273.127 213.51,271.793 214,270.5C 214.717,271.044 215.217,271.711 215.5,272.5 Z"/></g>
<g><path style="opacity:1" fill="#484647" d="M 86.5,275.5 C 90.31,276.754 90.31,277.754 86.5,278.5C 86.5,277.5 86.5,276.5 86.5,275.5 Z"/></g>
<g><path style="opacity:1" fill="#4c4a4d" d="M 82.5,276.5 C 84.337,276.639 84.6704,277.306 83.5,278.5C 82.7025,278.043 82.3691,277.376 82.5,276.5 Z"/></g>
<g><path style="opacity:1" fill="#3d3b3c" d="M 311.5,277.5 C 313.337,277.639 313.67,278.306 312.5,279.5C 311.702,279.043 311.369,278.376 311.5,277.5 Z"/></g>
<g><path style="opacity:1" fill="#1a181b" d="M 315.5,277.5 C 317.337,277.639 317.67,278.306 316.5,279.5C 315.702,279.043 315.369,278.376 315.5,277.5 Z"/></g>
<g><path style="opacity:1" fill="#3a3a3a" d="M 234.5,278.5 C 236.465,278.948 236.798,279.948 235.5,281.5C 234.614,280.675 234.281,279.675 234.5,278.5 Z"/></g>
<g><path style="opacity:1" fill="#2c2a2d" d="M 238.5,278.5 C 239.5,278.5 240.5,278.5 241.5,278.5C 241.5,279.5 241.5,280.5 241.5,281.5C 240.5,281.5 239.5,281.5 238.5,281.5C 238.5,280.5 238.5,279.5 238.5,278.5 Z"/></g>
<g><path style="opacity:1" fill="#211f20" d="M 161.5,279.5 C 163.337,279.639 163.67,280.306 162.5,281.5C 161.702,281.043 161.369,280.376 161.5,279.5 Z"/></g>
<g><path style="opacity:1" fill="#393738" d="M 166.5,278.5 C 167.5,278.5 168.5,278.5 169.5,278.5C 169.426,282.541 168.093,283.208 165.5,280.5C 165.863,279.817 166.196,279.15 166.5,278.5 Z"/></g>
<g><path style="opacity:0.569" fill="#b3b1b4" d="M 77.5,284.5 C 77.4255,290.529 77.7588,296.529 78.5,302.5C 77.0296,299.114 76.3629,295.447 76.5,291.5C 76.5034,288.975 76.8367,286.641 77.5,284.5 Z"/></g>
<g><path style="opacity:1" fill="#29272b" d="M 145.5,294.5 C 148.674,294.952 149.007,295.952 146.5,297.5C 145.614,296.675 145.281,295.675 145.5,294.5 Z"/></g>
<g><path style="opacity:1" fill="#171619" d="M 150.5,294.5 C 151.5,294.5 152.5,294.5 153.5,294.5C 153.5,295.5 153.5,296.5 153.5,297.5C 152.5,297.5 151.5,297.5 150.5,297.5C 150.5,296.5 150.5,295.5 150.5,294.5 Z"/></g>
<g><path style="opacity:0.118" fill="#69666c" d="M 112.5,294.5 C 111.833,296.5 111.167,298.5 110.5,300.5C 110.187,297.753 110.52,295.086 111.5,292.5C 112.298,292.957 112.631,293.624 112.5,294.5 Z"/></g>
<g><path style="opacity:1" fill="#3c3c3e" d="M 255.5,301.5 C 257.337,301.639 257.67,302.306 256.5,303.5C 255.702,303.043 255.369,302.376 255.5,301.5 Z"/></g>
<g><path style="opacity:0.749" fill="#aba8b0" d="M 307.5,300.5 C 307.489,302.017 306.823,303.184 305.5,304C 306.448,304.483 307.448,304.649 308.5,304.5C 306.35,305.67 304.016,306.67 301.5,307.5C 302.462,304.823 304.462,302.49 307.5,300.5 Z"/></g>
<g><path style="opacity:1" fill="#bcbabd" d="M 90.5,303.5 C 89.1667,303.833 89.1667,304.167 90.5,304.5C 91.075,306.411 92.075,308.078 93.5,309.5C 92.1667,309.167 90.8333,308.833 89.5,308.5C 87.8212,308.285 86.8212,308.952 86.5,310.5C 84.9731,310.427 83.9731,311.094 83.5,312.5C 82.6618,312.158 82.3284,311.492 82.5,310.5C 82.572,308.689 83.4053,307.356 85,306.5C 88.4957,308.234 89.6623,307.401 88.5,304C 89.0311,302.282 89.6977,302.115 90.5,303.5 Z"/></g>
<g><path style="opacity:0.99" fill="#eceaed" d="M 112.5,294.5 C 118.528,305.771 115.862,314.271 104.5,320C 95.8124,321.98 88.8124,319.48 83.5,312.5C 83.9731,311.094 84.9731,310.427 86.5,310.5C 88.1788,310.715 89.1788,310.048 89.5,308.5C 90.8333,308.833 92.1667,309.167 93.5,309.5C 103.078,314.209 108.745,311.209 110.5,300.5C 111.167,298.5 111.833,296.5 112.5,294.5 Z"/></g>
<g><path style="opacity:1" fill="#a9a7ac" d="M 310.5,305.5 C 310.833,306.833 311.167,308.167 311.5,309.5C 310.842,310.398 310.176,311.398 309.5,312.5C 308.859,311.007 307.859,310.007 306.5,309.5C 307.833,308.167 309.167,306.833 310.5,305.5 Z"/></g>
<g><path style="opacity:1" fill="#373538" d="M 89.5,308.5 C 89.1788,310.048 88.1788,310.715 86.5,310.5C 86.8212,308.952 87.8212,308.285 89.5,308.5 Z"/></g>
<g><path style="opacity:0.995" fill="#e4e1e5" d="M 306.5,309.5 C 307.859,310.007 308.859,311.007 309.5,312.5C 310.176,311.398 310.842,310.398 311.5,309.5C 311.833,309.5 312.167,309.5 312.5,309.5C 312.281,310.675 312.614,311.675 313.5,312.5C 314.107,312.376 314.44,312.043 314.5,311.5C 315.833,310.833 317.167,310.167 318.5,309.5C 312.175,320.441 303.175,323.274 291.5,318C 283.182,310.317 282.348,301.817 289,292.5C 288.6,298.912 290.1,304.746 293.5,310C 298.003,313.066 302.336,312.899 306.5,309.5 Z"/></g>
<g><path style="opacity:1" fill="#3c3a3e" d="M 312.5,309.5 C 313.833,309.5 314.5,310.167 314.5,311.5C 314.44,312.043 314.107,312.376 313.5,312.5C 312.614,311.675 312.281,310.675 312.5,309.5 Z"/></g>
<g><path style="opacity:1" fill="#b8b6b7" d="M 142.5,318.5 C 141.833,315.833 141.167,315.833 140.5,318.5C 139.5,318.5 138.5,318.5 137.5,318.5C 137.33,317.178 137.663,316.011 138.5,315C 140.107,315.019 141.774,315.185 143.5,315.5C 143.737,316.791 143.404,317.791 142.5,318.5 Z"/></g>
<g><path style="opacity:1" fill="#2c2a2b" d="M 142.5,318.5 C 141.833,318.5 141.167,318.5 140.5,318.5C 141.167,315.833 141.833,315.833 142.5,318.5 Z"/></g>
<g><path style="opacity:1" fill="#3f3d3e" d="M 255.5,319.5 C 256.376,319.369 257.043,319.702 257.5,320.5C 255.192,321.873 254.525,321.54 255.5,319.5 Z"/></g>
<g><path style="opacity:1" fill="#343235" d="M 259.5,319.5 C 262.957,319.667 263.29,320.667 260.5,322.5C 259.614,321.675 259.281,320.675 259.5,319.5 Z"/></g>
<g><path style="opacity:0.094" fill="#494847" d="M 253.5,332.5 C 253.5,331.833 253.167,331.5 252.5,331.5C 252.783,330.711 253.283,330.044 254,329.5C 254.74,330.749 254.573,331.749 253.5,332.5 Z"/></g>
<g><path style="opacity:0.624" fill="#b8b6bc" d="M 249.5,327.5 C 249.5,328.833 249.5,330.167 249.5,331.5C 250.5,331.5 251.5,331.5 252.5,331.5C 251.116,334.195 249.116,335.195 246.5,334.5C 247.661,332.115 248.661,329.781 249.5,327.5 Z"/></g>
<g><path style="opacity:1" fill="#d3d1d4" d="M 146.5,332.5 C 148.09,335.761 150.424,338.427 153.5,340.5C 152.957,340.56 152.624,340.893 152.5,341.5C 153.243,342.182 153.909,342.849 154.5,343.5C 153.167,343.5 152.5,344.167 152.5,345.5C 150.007,345.131 149.34,345.797 150.5,347.5C 145.167,345.5 141.5,341.833 139.5,336.5C 141.799,337.932 143.465,337.266 144.5,334.5C 145.298,334.957 145.631,335.624 145.5,336.5C 145.369,337.376 145.702,338.043 146.5,338.5C 147.773,337.743 147.773,337.077 146.5,336.5C 146.5,335.167 146.5,333.833 146.5,332.5 Z"/></g>
<g><path style="opacity:1" fill="#212021" d="M 145.5,336.5 C 145.833,336.5 146.167,336.5 146.5,336.5C 147.773,337.077 147.773,337.743 146.5,338.5C 145.702,338.043 145.369,337.376 145.5,336.5 Z"/></g>
<g><path style="opacity:1" fill="#d4d2d6" d="M 167.5,347.5 C 167.773,345.549 167.107,344.049 165.5,343C 165.833,342.667 166.167,342.333 166.5,342C 165.207,341.51 163.873,341.343 162.5,341.5C 167.79,339.428 172.624,336.428 177,332.5C 176.394,339.03 173.227,344.03 167.5,347.5 Z"/></g>
<g><path style="opacity:0.985" fill="#edebee" d="M 153.5,340.5 C 156.455,341.159 159.455,341.492 162.5,341.5C 163.873,341.343 165.207,341.51 166.5,342C 166.167,342.333 165.833,342.667 165.5,343C 167.107,344.049 167.773,345.549 167.5,347.5C 161.801,350.106 156.134,350.106 150.5,347.5C 149.34,345.797 150.007,345.131 152.5,345.5C 153.833,345.5 154.5,344.833 154.5,343.5C 153.909,342.849 153.243,342.182 152.5,341.5C 152.624,340.893 152.957,340.56 153.5,340.5 Z"/></g>
<g><path style="opacity:1" fill="#3b393c" d="M 250.5,341.5 C 252.76,342.238 252.927,343.238 251,344.5C 249.272,343.648 249.105,342.648 250.5,341.5 Z"/></g>
<g><path style="opacity:1" fill="#39373c" d="M 154.5,343.5 C 154.5,344.833 153.833,345.5 152.5,345.5C 152.5,344.167 153.167,343.5 154.5,343.5 Z"/></g>
<g><path style="opacity:1" fill="#7c7a7f" d="M 158.5,342.5 C 159.643,342.908 160.643,343.575 161.5,344.5C 160.302,344.94 159.135,345.273 158,345.5C 157.53,344.423 157.697,343.423 158.5,342.5 Z"/></g>
</svg>
